<svg width="88" height="101" viewBox="0 0 88 101" fill="none" xmlns="http://www.w3.org/2000/svg">
<g filter="url(#filter0_f_824_9618)">
<ellipse cx="37.7894" cy="85.9689" rx="25.5938" ry="2.625" transform="rotate(-1.65893 37.7894 85.9689)" fill="white" fill-opacity="0.8"/>
</g>
<path fill-rule="evenodd" clip-rule="evenodd" d="M58.7359 5.74722C56.7903 6.04765 55.1368 7.04819 53.6511 8.82393C52.3111 10.4253 51.2752 12.726 50.8102 15.1335C50.5943 16.2506 50.4123 18.5683 50.4969 19.1236L50.5569 19.5185L51.0036 19.4439C51.2492 19.403 51.57 19.3499 51.7164 19.3262L51.9826 19.2829L52.0342 17.8058C52.1337 14.9659 52.8408 12.5927 54.2061 10.5169C54.7327 9.7163 55.8349 8.61059 56.593 8.12253C58.2724 7.04125 60.3204 6.90488 62.0148 7.76159C65.9812 9.76696 68.1009 15.8123 66.9121 21.7288C66.1431 25.5567 63.9154 28.5746 61.2026 29.4641C60.3555 29.7418 59.0262 29.772 58.2216 29.5317C57.1493 29.2115 55.7803 28.3406 55.1427 27.5731C54.8937 27.2732 54.8327 27.239 54.7174 27.3347C54.5451 27.4778 54.1502 28.3092 54.1502 28.5292C54.1502 28.8812 55.7422 30.1086 56.823 30.5897C57.8728 31.057 58.3763 31.1565 59.6787 31.1537C60.8071 31.1513 60.9271 31.1345 61.6877 30.872C65.032 29.7176 67.5465 26.2953 68.4369 21.686C68.6972 20.3382 68.795 17.8828 68.6416 16.5425C68.0861 11.6852 65.5965 7.65736 62.2767 6.24462C61.1941 5.7839 59.7823 5.58565 58.7359 5.74722ZM57.4073 19.2537C57.2423 19.2731 56.7409 19.3457 56.293 19.415C55.8452 19.4842 53.8202 19.7931 51.793 20.1014C49.7659 20.4097 47.7602 20.7174 47.3359 20.7852C46.9116 20.8531 45.7738 21.0277 44.8073 21.1731C42.3124 21.5488 41.4082 21.8799 40.2346 22.848C39.4018 23.535 38.9552 24.1484 37.9487 25.9881C37.0013 27.7197 36.07 29.4195 31.9936 36.8574C30.6371 39.3324 29.0941 42.1481 28.5647 43.1145C28.0354 44.081 26.9356 46.0867 26.1208 47.5717C25.306 49.0567 24.091 51.2745 23.4208 52.5002C22.7505 53.726 21.8302 55.4074 21.3756 56.2368C20.9211 57.0662 20.4492 58.0305 20.3272 58.3796C19.4843 60.7901 20.1651 63.6024 22.0186 65.3678C22.6089 65.93 23.1053 66.2702 24.193 66.8584C24.5702 67.0623 25.8238 67.7475 26.9788 68.3811C28.1338 69.0146 29.7538 69.9007 30.5788 70.35C31.4038 70.7993 33.2166 71.7929 34.6073 72.558C35.998 73.3231 38.1773 74.5201 39.4502 75.218C40.723 75.9158 42.073 76.6562 42.4502 76.8633C43.6653 77.5305 44.6642 77.9788 45.2787 78.1328C46.0676 78.3304 47.5578 78.335 48.3489 78.1424C49.9787 77.7453 51.5945 76.6077 52.4591 75.2483C52.7018 74.8669 53.935 72.6419 55.5897 69.6002C55.7564 69.2938 56.4018 68.1174 57.024 66.986C57.6461 65.8545 58.5021 64.2924 58.9261 63.5145C59.35 62.7367 60.3639 60.8852 61.179 59.4002C61.9941 57.9152 63.0946 55.9066 63.6244 54.9367C64.1543 53.9667 65.2742 51.9224 66.1131 50.3938C69.96 43.3838 70.8499 41.7142 71.0295 41.1698C71.4447 39.9118 71.4647 38.2206 71.0781 37.0717C70.9365 36.6508 70.2405 35.0547 67.2658 28.3288C67.1824 28.1402 67.032 27.7972 66.9315 27.5666L66.749 27.1472L66.2056 27.8666C64.5305 30.0846 62.3131 31.413 60.1073 31.5199C59.3125 31.5584 59.2191 31.5823 58.8216 31.847C58.1667 32.2835 57.6151 32.4282 56.7743 32.384C56.2197 32.3549 55.9518 32.2935 55.5751 32.1092C54.942 31.7995 54.3414 31.1986 54.0239 30.5574C53.7935 30.092 53.7691 29.9615 53.7669 29.1844C53.7646 28.3844 53.7837 28.2867 54.0466 27.7524C54.7276 26.3684 56.2876 25.6331 57.7486 26.0074C59.1127 26.3569 60.0656 27.4617 60.2127 28.8645C60.2386 29.112 60.2968 29.3145 60.3418 29.3145C60.5915 29.3145 61.4815 28.9924 62.0788 28.6859C63.2371 28.0914 64.6759 26.5093 65.4459 24.9833L65.6202 24.6378L65.3668 24.044C64.8313 22.7883 63.6607 21.3652 62.5155 20.5773C61.8903 20.1471 60.7852 19.6648 59.9787 19.4701C59.2512 19.2944 57.9744 19.187 57.4073 19.2537ZM57.493 21.3431C57.493 21.392 57.7502 21.4288 58.093 21.4288C58.4359 21.4288 58.693 21.392 58.693 21.3431C58.693 21.2942 58.4359 21.2574 58.093 21.2574C57.7502 21.2574 57.493 21.2942 57.493 21.3431ZM55.6287 21.533C55.3341 21.5782 55.093 21.6547 55.093 21.703C55.093 21.7852 55.2806 21.7704 55.9716 21.6333C56.1013 21.6076 56.2073 21.5511 56.2073 21.5078C56.2073 21.4643 56.1977 21.4337 56.1859 21.4397C56.1741 21.4458 55.9234 21.4877 55.6287 21.533ZM60.3645 21.8574C60.9356 22.1283 61.0446 22.1584 60.9601 22.0217C60.8859 21.9017 60.1788 21.5983 59.9931 21.6068C59.9145 21.6104 60.0816 21.7232 60.3645 21.8574ZM53.0359 21.92C52.8709 21.9395 52.6973 21.9958 52.6502 22.0454C52.5405 22.1605 53.6418 22.0532 53.7602 21.9372C53.8431 21.8559 53.6255 21.8508 53.0359 21.92ZM50.6573 22.3027C50.4098 22.3478 50.2073 22.423 50.2073 22.4697C50.2073 22.5164 50.2749 22.536 50.3573 22.5132C50.4398 22.4905 50.6896 22.447 50.9125 22.4168C51.1353 22.3865 51.34 22.3254 51.3676 22.281C51.4262 22.1861 51.2706 22.1908 50.6573 22.3027ZM48.343 22.6472C48.0484 22.6925 47.8073 22.769 47.8073 22.8173C47.8073 22.8995 47.9949 22.8847 48.6859 22.7476C48.8156 22.7219 48.9216 22.6654 48.9216 22.622C48.9216 22.5786 48.912 22.548 48.9002 22.554C48.8883 22.5601 48.6377 22.602 48.343 22.6472ZM62.0412 22.8431C62.0432 22.9749 62.8036 23.8013 62.8055 23.6738C62.8065 23.6121 62.6346 23.3807 62.4236 23.1596C62.2126 22.9383 62.0404 22.796 62.0412 22.8431ZM45.7278 23.0539C45.5505 23.0883 45.3769 23.1468 45.3421 23.184C45.2523 23.2797 46.3757 23.1483 46.4745 23.0515C46.5692 22.9586 46.213 22.9598 45.7278 23.0539ZM43.7359 23.3595C43.6888 23.3768 43.4862 23.4332 43.2859 23.4847C42.6971 23.636 42.869 23.7213 43.4788 23.5804C43.7852 23.5095 44.0359 23.4208 44.0359 23.3831C44.0359 23.3135 43.892 23.3023 43.7359 23.3595ZM41.2318 24.6297C41.0151 24.8346 40.8758 25.0257 40.9224 25.0544C40.969 25.0832 41.1953 24.9157 41.4254 24.6821C41.9402 24.1594 41.7765 24.1152 41.2318 24.6297ZM63.4073 24.8978C63.4073 25.0263 63.847 25.9035 63.8898 25.8606C63.956 25.7945 63.5705 24.8574 63.4773 24.8574C63.4388 24.8574 63.4073 24.8756 63.4073 24.8978ZM39.8966 26.6164C39.642 27.1356 39.6214 27.2084 39.7518 27.1278C39.8338 27.0771 40.2645 26.2883 40.2645 26.1888C40.2645 26.0166 40.0931 26.2157 39.8966 26.6164ZM38.7308 28.7413C38.4528 29.2272 38.422 29.3147 38.5288 29.3143C38.6212 29.3138 39.1083 28.3869 39.0478 28.3264C39.0199 28.2986 38.8773 28.4852 38.7308 28.7413ZM65.3787 29.3681C65.3787 29.5027 65.839 30.4288 65.9059 30.4288C65.9472 30.4288 65.9189 30.2842 65.843 30.1074C65.767 29.9306 65.6663 29.6798 65.6192 29.5502C65.5442 29.3442 65.3787 29.2189 65.3787 29.3681ZM37.5286 30.9431C37.3778 31.226 37.2946 31.4574 37.3438 31.4574C37.3929 31.4574 37.5395 31.2548 37.6696 31.0074C37.9823 30.413 37.9764 30.4288 37.8836 30.4288C37.839 30.4288 37.6793 30.6602 37.5286 30.9431ZM66.4082 31.6502C66.4095 31.8269 66.8537 32.7077 66.8912 32.6081C66.9252 32.5178 66.5158 31.5431 66.4439 31.5431C66.4238 31.5431 66.4077 31.5914 66.4082 31.6502ZM36.346 33.0756C36.1943 33.3517 36.0958 33.6031 36.127 33.6342C36.1798 33.6871 36.7468 32.7775 36.7491 32.636C36.7522 32.4529 36.5921 32.6274 36.346 33.0756ZM67.4669 34.136C67.7137 34.7132 67.8084 34.886 67.8783 34.886C67.9785 34.886 67.9765 34.8783 67.7296 34.3392C67.4991 33.8358 67.2594 33.6503 67.4669 34.136ZM35.2144 35.1566C34.972 35.5792 34.8894 35.8288 34.9918 35.8288C35.0599 35.8288 35.5651 34.7866 35.5192 34.7408C35.496 34.7175 35.3589 34.9046 35.2144 35.1566ZM68.4268 36.2788C68.5281 36.6064 68.8848 37.2505 68.8895 37.1145C68.8959 36.9359 68.523 36.0892 68.4373 36.0874C68.3987 36.0866 68.394 36.1727 68.4268 36.2788ZM33.9823 37.4164C33.7277 37.9356 33.7071 38.0084 33.8375 37.9278C33.9195 37.8771 34.3502 37.0883 34.3502 36.9888C34.3502 36.8166 34.1788 37.0157 33.9823 37.4164ZM69.2076 38.9648C69.2237 39.5908 69.2719 39.7242 69.358 39.3809C69.4197 39.1353 69.3369 38.4002 69.2475 38.4002C69.2175 38.4002 69.1995 38.6542 69.2076 38.9648ZM32.8099 39.536C32.5419 40.0033 32.5046 40.1145 32.6161 40.1145C32.6524 40.1145 32.8093 39.8831 32.9648 39.6002C33.3119 38.9687 33.1691 38.9095 32.8099 39.536ZM68.6524 41.2556C68.3625 41.7692 68.3408 41.8289 68.443 41.8287C68.5407 41.8286 68.9961 40.9808 68.9587 40.8687C68.9408 40.8148 68.8029 40.9889 68.6524 41.2556ZM31.6143 41.7431C31.4635 42.026 31.3804 42.2574 31.4295 42.2574C31.4786 42.2574 31.6252 42.0548 31.7554 41.8074C32.068 41.213 32.0621 41.2288 31.9693 41.2288C31.9247 41.2288 31.765 41.4602 31.6143 41.7431ZM40.0421 41.8621C38.1968 42.4599 36.9652 44.1359 36.9802 46.0288C37.0067 49.3766 41.0063 50.6917 43.5149 48.1772C44.3116 47.3786 44.8098 46.2195 44.8053 45.1751C44.7942 42.6685 42.4931 41.0679 40.0421 41.8621ZM51.2787 42.9346C51.1373 43.0239 48.1192 46.004 44.5716 49.5571L38.1216 56.0172V56.3726C38.1216 56.6641 38.1689 56.7677 38.3854 56.9498C38.7607 57.2656 39.0645 57.2378 39.5092 56.8471C39.7125 56.6685 42.6998 53.6991 46.1476 50.2484C50.2285 46.1643 52.4367 43.8946 52.474 43.7456C52.5516 43.4366 52.3953 43.0924 52.0976 42.9166C51.7819 42.7301 51.5963 42.7341 51.2787 42.9346ZM67.6281 43.136C67.5255 43.2642 67.1787 43.9432 67.1787 44.0162C67.1787 44.1533 67.3644 43.9217 67.5935 43.4986C67.824 43.073 67.8437 42.8669 67.6281 43.136ZM40.8082 43.2895C39.2406 43.5997 38.1303 45.4405 38.7143 46.7609C38.9445 47.2811 39.1017 47.4576 39.5297 47.676C40.5183 48.1805 41.8098 47.8109 42.6204 46.7914C43.4387 45.7623 43.3803 44.2814 42.4961 43.6409C42.2016 43.4276 41.4535 43.1738 41.2246 43.2097C41.1915 43.2148 41.0042 43.2507 40.8082 43.2895ZM30.4396 43.8866C30.2925 44.1692 30.2028 44.4002 30.2405 44.4002C30.3069 44.4002 30.8359 43.5342 30.8359 43.4255C30.8359 43.2495 30.6727 43.4395 30.4396 43.8866ZM66.2593 45.6217C65.9466 46.2161 65.9525 46.2002 66.0453 46.2002C66.0899 46.2002 66.2496 45.9688 66.4004 45.686C66.5511 45.4031 66.6343 45.1717 66.5852 45.1717C66.5361 45.1717 66.3894 45.3741 66.2593 45.6217ZM29.3002 45.9566C29.0578 46.3792 28.9751 46.6288 29.0776 46.6288C29.1456 46.6288 29.6508 45.5866 29.605 45.5408C29.5817 45.5175 29.4446 45.7046 29.3002 45.9566ZM65.0938 47.7457C64.9607 47.9827 64.8665 48.2207 64.8845 48.2746C64.9122 48.3578 65.4645 47.4857 65.4645 47.3587C65.4645 47.2054 65.3019 47.3751 65.0938 47.7457ZM28.1096 48.1128C27.8319 48.6049 27.7649 48.8257 27.9232 48.7278C28.0518 48.6483 28.4508 47.8308 28.4145 47.7216C28.3972 47.6701 28.2601 47.846 28.1096 48.1128ZM64.1157 49.5625C64.0155 49.6873 63.6645 50.3699 63.6645 50.4397C63.6645 50.6135 63.8362 50.4125 64.0364 50.0043C64.2627 49.5428 64.3006 49.3317 64.1157 49.5625ZM26.9002 50.328C26.6288 50.8012 26.59 50.9147 26.7002 50.9144C26.79 50.914 27.2704 49.9776 27.2111 49.9184C27.1846 49.8918 27.0446 50.0761 26.9002 50.328ZM49.0665 50.6146C48.328 50.8176 47.7078 51.184 47.122 51.7634C45.0922 53.7706 45.4235 56.8591 47.7909 57.9988C48.4856 58.3333 49.7401 58.3873 50.5502 58.1176C53.3038 57.2009 54.5352 53.8543 52.8802 51.7849C52.0106 50.6974 50.4771 50.2268 49.0665 50.6146ZM62.7381 52.0556C62.4483 52.5692 62.4265 52.6289 62.5287 52.6287C62.6264 52.6286 63.0818 51.7808 63.0444 51.6687C63.0265 51.6148 62.8887 51.7889 62.7381 52.0556ZM25.693 52.5431C25.5502 52.826 25.4672 53.0574 25.5084 53.0574C25.5497 53.0574 25.7068 52.826 25.8575 52.5431C26.0083 52.2602 26.0914 52.0288 26.0422 52.0288C25.993 52.0288 25.8358 52.2602 25.693 52.5431ZM49.5845 52.118C48.7672 52.3209 47.94 52.9975 47.6224 53.723C47.5247 53.9462 47.4262 54.3795 47.4035 54.686C47.3669 55.1793 47.3906 55.2969 47.61 55.7132C47.9722 56.4005 48.4856 56.7002 49.3006 56.7002C50.0918 56.7002 50.7117 56.4084 51.3093 55.7546C51.8504 55.1625 52.0382 54.6323 51.9926 53.8254C51.9652 53.3402 51.9136 53.1712 51.7009 52.8682C51.2539 52.2315 50.3781 51.9211 49.5845 52.118ZM61.5309 54.253C61.3824 54.5315 61.2908 54.7778 61.3272 54.8003C61.3636 54.8228 61.5171 54.6147 61.6681 54.3378C61.819 54.0608 61.9107 53.8145 61.8717 53.7904C61.8327 53.7663 61.6793 53.9744 61.5309 54.253ZM24.507 54.686C24.3515 54.9688 24.2647 55.2002 24.3141 55.2002C24.3989 55.2002 24.9191 54.3734 24.9208 54.236C24.9232 54.0494 24.7586 54.2283 24.507 54.686ZM60.3297 56.4418C60.0434 56.9493 60.0259 57.0002 60.1383 57.0002C60.1788 57.0002 60.3353 56.7688 60.4861 56.486C60.8294 55.842 60.6904 55.8027 60.3297 56.4418ZM23.3537 56.7878C23.1004 57.3045 23.089 57.3431 23.1895 57.3431C23.2486 57.3431 23.7216 56.4652 23.7216 56.3555C23.7216 56.333 23.6911 56.3145 23.6537 56.3145C23.6164 56.3145 23.4814 56.5275 23.3537 56.7878ZM59.1796 58.5457C59.0464 58.7827 58.9522 59.0207 58.9702 59.0746C58.9979 59.1578 59.5502 58.2857 59.5502 58.1587C59.5502 58.0054 59.3877 58.1751 59.1796 58.5457ZM22.3219 58.7358C22.1525 59.141 22.0642 59.5718 22.1506 59.5709C22.2392 59.57 22.5619 58.5548 22.4949 58.4878C22.468 58.4609 22.3901 58.5725 22.3219 58.7358ZM58.2014 60.3625C58.0974 60.4922 57.7502 61.1711 57.7502 61.2447C57.7502 61.387 57.9492 61.1402 58.1433 60.7571C58.3533 60.3427 58.3839 60.1347 58.2014 60.3625ZM22.0099 61.0551C22.0061 61.4038 22.1848 62.0574 22.2838 62.0574C22.3304 62.0574 22.345 61.9962 22.3163 61.9214C22.2876 61.8464 22.2397 61.6247 22.21 61.4285C22.1386 60.9587 22.0135 60.725 22.0099 61.0551ZM56.8136 62.8607C56.5374 63.3434 56.5077 63.4288 56.6161 63.4288C56.6523 63.4288 56.8093 63.1974 56.9648 62.9145C57.1203 62.6317 57.2091 62.4002 57.1623 62.4002C57.1154 62.4002 56.9585 62.6074 56.8136 62.8607ZM22.8663 63.2409C22.8652 63.3026 23.0372 63.5341 23.2482 63.7552C23.4592 63.9764 23.6314 64.1188 23.6306 64.0717C23.6286 63.9398 22.8682 63.1135 22.8663 63.2409ZM55.6213 65.0574C55.4658 65.3402 55.3791 65.5717 55.4286 65.5717C55.4781 65.5717 55.6252 65.3692 55.7553 65.1217C56.0662 64.5306 56.0614 64.5431 55.9771 64.5431C55.9369 64.5431 55.7768 64.7745 55.6213 65.0574ZM24.7039 64.7947C24.7812 64.9198 25.693 65.393 25.693 65.308C25.693 65.2314 24.8515 64.7168 24.7237 64.7153C24.6856 64.7149 24.6766 64.7506 24.7039 64.7947ZM26.8933 65.9788C26.8938 66.0713 27.8206 66.5583 27.8812 66.4978C27.909 66.47 27.7223 66.3273 27.4663 66.1808C26.9804 65.9029 26.8929 65.872 26.8933 65.9788ZM54.422 67.2431C54.2816 67.5024 54.1939 67.7314 54.2273 67.7521C54.2607 67.7726 54.4138 67.5605 54.5677 67.2806C54.7215 67.0007 54.8092 66.7717 54.7624 66.7717C54.7156 66.7717 54.5625 66.9838 54.422 67.2431ZM29.0359 67.1824C29.0359 67.2431 29.9152 67.7145 30.0286 67.7145C30.1645 67.7145 29.9145 67.5134 29.5469 67.3272C29.0902 67.0958 29.0359 67.0803 29.0359 67.1824ZM31.1788 68.3072C31.1788 68.3568 31.3813 68.5039 31.6288 68.634C32.2198 68.9449 32.2073 68.9401 32.2073 68.8557C32.2073 68.8155 31.9759 68.6554 31.693 68.4999C31.4102 68.3444 31.1788 68.2577 31.1788 68.3072ZM53.2574 69.3452C53.1285 69.582 53.0377 69.82 53.0558 69.8742C53.0836 69.9577 53.6359 69.0861 53.6359 68.9587C53.6359 68.7963 53.4562 68.9798 53.2574 69.3452ZM33.3216 69.4947C33.3216 69.531 33.553 69.6879 33.8359 69.8434C34.1188 69.9989 34.3502 70.0886 34.3502 70.0428C34.3502 69.9969 34.1386 69.8401 33.88 69.6941C33.3796 69.4117 33.3216 69.391 33.3216 69.4947ZM35.5084 70.7162C35.5806 70.8332 36.4131 71.2517 36.4667 71.198C36.511 71.1536 35.644 70.631 35.5237 70.6296C35.4856 70.6292 35.4786 70.6682 35.5084 70.7162ZM52.0598 71.5315C51.9237 71.792 51.834 72.027 51.8607 72.0536C51.908 72.101 52.4335 71.2484 52.4351 71.1217C52.4374 70.938 52.2802 71.1096 52.0598 71.5315ZM37.7359 71.9668C38.015 72.1826 38.5557 72.4412 38.6571 72.4075C38.7088 72.3902 38.533 72.253 38.2662 72.1025C37.7619 71.8178 37.4351 71.7343 37.7359 71.9668ZM39.7502 73.0705C39.7502 73.1147 40.7391 73.6288 40.8243 73.6288C40.9642 73.6288 40.7195 73.4302 40.3469 73.2415C39.944 73.0373 39.7502 72.9818 39.7502 73.0705ZM50.9022 73.6556C50.6242 74.1415 50.5934 74.229 50.7002 74.2286C50.7927 74.228 51.2797 73.3012 51.2192 73.2407C51.1913 73.2128 51.0487 73.3995 50.9022 73.6556ZM41.9788 74.2175C41.9788 74.2951 42.8298 74.8288 42.9535 74.8288C43.1386 74.8288 42.9358 74.6432 42.493 74.4072C42.2102 74.2564 41.9788 74.171 41.9788 74.2175ZM49.2645 75.4378C49.0523 75.5768 48.8642 75.7334 48.8463 75.7857C48.8043 75.9087 49.4827 75.5282 49.6655 75.3262C49.8676 75.1028 49.7076 75.1473 49.2645 75.4378ZM44.1217 75.4074C44.1219 75.505 44.9697 75.9604 45.0817 75.923C45.1356 75.9051 44.9615 75.7673 44.6948 75.6168C44.1812 75.3269 44.1215 75.3051 44.1217 75.4074ZM46.4359 76.2096C46.4359 76.2516 46.6866 76.286 46.993 76.286C47.3029 76.286 47.5502 76.2483 47.5502 76.2013C47.5502 76.1533 47.3085 76.1202 46.993 76.1249C46.6866 76.1295 46.4359 76.1677 46.4359 76.2096Z" fill="white"/>
<defs>
<filter id="filter0_f_824_9618" x="-1.23978e-05" y="71.0354" width="75.5788" height="29.8668" filterUnits="userSpaceOnUse" color-interpolation-filters="sRGB">
<feFlood flood-opacity="0" result="BackgroundImageFix"/>
<feBlend mode="normal" in="SourceGraphic" in2="BackgroundImageFix" result="shape"/>
<feGaussianBlur stdDeviation="6.10313" result="effect1_foregroundBlur_824_9618"/>
</filter>
</defs>
</svg>
