<svg width="24" height="24" viewBox="0 0 24 24" fill="none" xmlns="http://www.w3.org/2000/svg">
<path d="M8.41504 17.7764C8.15597 18.0995 8.2081 18.571 8.53125 18.8301C10.0291 20.0308 11.9315 20.75 14 20.75C18.8325 20.75 22.75 16.8325 22.75 12C22.75 7.16751 18.8325 3.25 14 3.25C11.9315 3.25 10.0291 3.9692 8.53125 5.16992C8.2081 5.42901 8.15597 5.90046 8.41504 6.22363C8.67406 6.5467 9.14558 6.59869 9.46875 6.33984C10.7101 5.34476 12.2848 4.75 14 4.75C18.0041 4.75 21.25 7.99593 21.25 12C21.25 16.0041 18.0041 19.25 14 19.25C12.2848 19.25 10.7101 18.6552 9.46875 17.6602C9.14558 17.4013 8.67406 17.4533 8.41504 17.7764ZM1.25 12C1.25002 12.4142 1.5858 12.75 2 12.75L14.1895 12.75L11.4697 15.4697C11.1768 15.7626 11.1768 16.2374 11.4697 16.5303C11.7626 16.8232 12.2374 16.8232 12.5303 16.5303L16.5303 12.5303C16.6709 12.3896 16.75 12.1989 16.75 12C16.75 11.8011 16.6709 11.6104 16.5303 11.4697L12.5303 7.46973C12.2374 7.17683 11.7626 7.17683 11.4697 7.46973C11.1768 7.76262 11.1768 8.23738 11.4697 8.53027L14.1895 11.25L2 11.25C1.58579 11.25 1.25 11.5858 1.25 12Z" fill="#08C5D1"/>
</svg>
