<svg width="18" height="19" viewBox="0 0 18 19" fill="none" xmlns="http://www.w3.org/2000/svg">
<path d="M11.25 17.7383H6.75C2.6775 17.7383 0.9375 15.9579 0.9375 11.7907V7.18602C0.9375 3.01881 2.6775 1.23834 6.75 1.23834H8.25C8.5575 1.23834 8.8125 1.49927 8.8125 1.81392C8.8125 2.12857 8.5575 2.3895 8.25 2.3895H6.75C3.2925 2.3895 2.0625 3.64811 2.0625 7.18602V11.7907C2.0625 15.3286 3.2925 16.5872 6.75 16.5872H11.25C14.7075 16.5872 15.9375 15.3286 15.9375 11.7907V10.2558C15.9375 9.94113 16.1925 9.6802 16.5 9.6802C16.8075 9.6802 17.0625 9.94113 17.0625 10.2558V11.7907C17.0625 15.9579 15.3225 17.7383 11.25 17.7383Z" fill="#4A90E2"/>
<path d="M6.37549 13.8551C5.91799 13.8551 5.49799 13.6863 5.19049 13.3793C4.82299 13.0032 4.66549 12.4584 4.74799 11.8828L5.07049 9.57278C5.13049 9.12767 5.41549 8.55209 5.72299 8.23743L11.633 2.18999C13.1255 0.662784 14.6405 0.662784 16.133 2.18999C16.9505 3.0265 17.318 3.87837 17.243 4.73023C17.1755 5.42092 16.8155 6.09627 16.133 6.78697L10.223 12.8344C9.91549 13.1491 9.35299 13.4407 8.91799 13.5021L6.66049 13.8321C6.56299 13.8551 6.46549 13.8551 6.37549 13.8551ZM12.428 3.00348L6.51799 9.05092C6.37549 9.19674 6.21049 9.53441 6.18049 9.73395L5.85799 12.0439C5.82799 12.2665 5.87299 12.4507 5.98549 12.5658C6.09799 12.6809 6.27799 12.727 6.49549 12.6963L8.75299 12.3663C8.94799 12.3356 9.28549 12.1667 9.42049 12.0209L15.3305 5.97348C15.818 5.47464 16.073 5.02953 16.1105 4.61511C16.1555 4.11627 15.9005 3.58674 15.3305 2.99581C14.1305 1.7679 13.3055 2.11325 12.428 3.00348Z" fill="#4A90E2"/>
<path d="M14.8877 7.82302C14.8352 7.82302 14.7827 7.81534 14.7377 7.8C12.7652 7.23209 11.1977 5.62814 10.6427 3.60976C10.5602 3.30279 10.7327 2.98814 11.0327 2.89604C11.3327 2.81162 11.6402 2.98814 11.7227 3.29511C12.1727 4.92976 13.4402 6.22674 15.0377 6.68721C15.3377 6.77162 15.5102 7.09395 15.4277 7.40093C15.3602 7.66186 15.1352 7.82302 14.8877 7.82302Z" fill="#4A90E2"/>
</svg>
