<svg width="16" height="16" viewBox="0 0 16 16" fill="none" xmlns="http://www.w3.org/2000/svg">
<path d="M8.82227 13.5013L13.9996 8.20001" stroke="#797782" stroke-linecap="round" stroke-linejoin="round"/>
<path d="M10.667 4.00002L5.05767 9.72402C4.80771 9.97406 4.66729 10.3131 4.66729 10.6667C4.66729 11.0202 4.80771 11.3593 5.05767 11.6094C5.30771 11.8593 5.64679 11.9997 6.00034 11.9997C6.35389 11.9997 6.69297 11.8593 6.94301 11.6094L12.5523 5.88535C13.0523 5.38528 13.3331 4.70713 13.3331 4.00002C13.3331 3.29292 13.0523 2.61476 12.5523 2.11469C12.0523 1.61476 11.3741 1.33392 10.667 1.33392C9.9599 1.33392 9.28175 1.61476 8.78167 2.11469L3.17167 7.83802C2.42146 8.58823 2 9.60573 2 10.6667C2 11.7276 2.42146 12.7451 3.17167 13.4954C3.92188 14.2456 4.93938 14.667 6.00034 14.667C7.06129 14.667 8.0788 14.2456 8.82901 13.4954" stroke="#797782" stroke-linecap="round" stroke-linejoin="round"/>
</svg>
