<svg width="12" height="12" viewBox="0 0 12 12" fill="none" xmlns="http://www.w3.org/2000/svg">
<path d="M1.5 3.23623C1.5 2.27734 2.27734 1.5 3.23623 1.5H8.79212C9.73535 1.5 10.5 2.26465 10.5 3.20788C10.5 3.71026 10.2788 4.18715 9.89531 4.51166L8.13514 6.00103C7.57377 6.47604 7.25 7.17412 7.25 7.9095V8.79982C7.25 9.23973 7.03951 9.65308 6.68374 9.91183L5.7131 10.6177C5.20823 10.9849 4.5 10.6243 4.5 10V7.84975C4.5 7.14899 4.20588 6.48039 3.68931 6.00687L2.06302 4.5161C1.70426 4.18724 1.5 3.72291 1.5 3.23623Z" stroke="#4A90E2"/>
</svg>
