<svg width="24" height="24" viewBox="0 0 24 24" fill="none" xmlns="http://www.w3.org/2000/svg">
<path d="M11.88 12.78C11.95 12.77 12.04 12.77 12.12 12.78C13.88 12.72 15.28 11.28 15.28 9.51C15.28 7.7 13.82 6.23 12 6.23C10.19 6.23 8.72003 7.7 8.72003 9.51C8.73003 11.28 10.12 12.72 11.88 12.78Z" stroke="#08C5D1" stroke-width="1.5" stroke-linecap="round" stroke-linejoin="round"/>
<path d="M5.25999 19.38C7.03999 21.01 9.39999 22 12 22C14.6 22 16.96 21.01 18.74 19.38C18.64 18.44 18.04 17.52 16.97 16.8C14.23 14.98 9.74999 14.98 7.02999 16.8C5.95999 17.52 5.35999 18.44 5.25999 19.38Z" stroke="#08C5D1" stroke-width="1.5" stroke-linecap="round" stroke-linejoin="round"/>
<path d="M12 22C6.47715 22 2 17.5228 2 12C2 6.47715 6.47715 2 12 2C17.5228 2 22 6.47715 22 12C22 17.5228 17.5228 22 12 22Z" stroke="#08C5D1" stroke-width="1.5" stroke-linecap="round" stroke-linejoin="round"/>
</svg>
