<svg width="44" height="44" viewBox="0 0 44 44" fill="none" xmlns="http://www.w3.org/2000/svg">
<circle cx="22" cy="22" r="22" fill="white"/>
<path d="M21.7801 23.43C21.9084 23.4117 22.0734 23.4117 22.2201 23.43C25.4468 23.32 28.0134 20.68 28.0134 17.435C28.0134 14.1167 25.3368 11.4217 22.0001 11.4217C18.6818 11.4217 15.9868 14.1167 15.9868 17.435C16.0051 20.68 18.5534 23.32 21.7801 23.43Z" stroke="#08C5D1" stroke-width="1.5" stroke-linecap="round" stroke-linejoin="round"/>
<path d="M9.64336 35.53C12.9067 38.5183 17.2334 40.3333 22 40.3333C26.7667 40.3333 31.0934 38.5183 34.3567 35.53C34.1734 33.8067 33.0734 32.12 31.1117 30.8C26.0884 27.4633 17.875 27.4633 12.8884 30.8C10.9267 32.12 9.82669 33.8067 9.64336 35.53Z" stroke="#08C5D1" stroke-width="1.5" stroke-linecap="round" stroke-linejoin="round"/>
<path d="M21.9999 40.3333C11.8747 40.3333 3.66659 32.1252 3.66659 22C3.66659 11.8748 11.8747 3.66666 21.9999 3.66666C32.1251 3.66666 40.3333 11.8748 40.3333 22C40.3333 32.1252 32.1251 40.3333 21.9999 40.3333Z" stroke="#08C5D1" stroke-width="1.5" stroke-linecap="round" stroke-linejoin="round"/>
</svg>
