<svg width="15" height="16" viewBox="0 0 15 16" fill="none" xmlns="http://www.w3.org/2000/svg">
<path d="M11.6183 14.0938C12.3183 14.0938 12.762 13.8563 13.0433 13.575C13.5933 13.025 13.9808 11.8563 12.7433 9.37503L12.1995 8.29378C12.1308 8.15003 12.1308 7.85003 12.1995 7.70628L12.7433 6.62503C13.987 4.14378 13.5933 2.96878 13.0433 2.42503C12.4995 1.87503 11.3245 1.48128 8.84954 2.72503L3.49955 5.40003C2.16829 6.06253 1.43704 6.98753 1.43704 8.00003C1.43704 9.01253 2.16829 9.93753 3.49329 10.6L8.84329 13.275C10.0558 13.8813 10.9558 14.0938 11.6183 14.0938ZM11.6183 2.84378C11.9558 2.84378 12.2183 2.92503 12.3808 3.08753C12.837 3.53753 12.6558 4.70628 11.9058 6.20003L11.362 7.28753C11.162 7.69378 11.162 8.30628 11.362 8.71253L11.9058 9.79378C12.6558 11.2938 12.837 12.4563 12.3808 12.9063C11.9308 13.3625 10.762 13.1813 9.26204 12.4313L3.91204 9.75628C2.93079 9.26878 2.37454 8.62503 2.37454 7.99378C2.37454 7.36253 2.93705 6.71878 3.91829 6.23128L9.26829 3.56253C10.2183 3.08753 11.037 2.84378 11.6183 2.84378Z" fill="white"/>
<path d="M8.22461 8.46875H11.5996C11.8559 8.46875 12.0684 8.25625 12.0684 8C12.0684 7.74375 11.8559 7.53125 11.5996 7.53125H8.22461C7.96836 7.53125 7.75586 7.74375 7.75586 8C7.75586 8.25625 7.96836 8.46875 8.22461 8.46875Z" fill="white"/>
</svg>
