<svg width="1134" height="252" viewBox="0 0 1134 252" fill="none" xmlns="http://www.w3.org/2000/svg">
<path d="M1132.5 112C1150.53 280 864.135 259.376 795 237C622 158.905 265.059 204.109 214 210.036C129.893 219.799 110.566 225.261 53.2487 210.036C-4.45727 194.702 -15.6957 130.57 40.3612 93.923C96.173 57.437 7.38157 -5.00223 0.413556 15.1756C-3.5054 26.4813 72.4971 62.8073 169.722 40.1567C172.886 39.4196 175.92 38.2355 178.827 36.7854C318.715 -32.9908 568.823 15.4207 682.002 38.9999C814 66.5 883.128 15.1756 975.128 15.1756C1009.26 8.46941 1125.55 47.2572 1132.5 112Z" stroke="#70927F" stroke-width="0.25" stroke-miterlimit="10"/>
</svg>
