<svg width="431" height="397" viewBox="0 0 431 397" fill="none" xmlns="http://www.w3.org/2000/svg">
<path d="M209.483 309.162C291.38 309.162 357.775 242.767 357.775 160.577C357.775 78.3872 291.087 11.9919 209.483 11.9919C127.585 11.9919 61.1901 78.3872 61.1901 160.577C61.1901 242.767 127.585 309.162 209.483 309.162Z" fill="#D0FDFC"/>
<path d="M348.123 63.1801C354.746 63.1801 360.115 57.8111 360.115 51.188C360.115 44.565 354.746 39.1959 348.123 39.1959C341.5 39.1959 336.131 44.565 336.131 51.188C336.131 57.8111 341.5 63.1801 348.123 63.1801Z" fill="#D0FDFC"/>
<path d="M365.672 16.3804C370.195 16.3804 373.862 12.7138 373.862 8.1907C373.862 3.66764 370.195 0.000976562 365.672 0.000976562C361.149 0.000976562 357.483 3.66764 357.483 8.1907C357.483 12.7138 361.149 16.3804 365.672 16.3804Z" fill="#D0FDFC"/>
<path d="M69.0873 62.8876C73.6104 62.8876 77.277 59.221 77.277 54.6979C77.277 50.1748 73.6104 46.5082 69.0873 46.5082C64.5642 46.5082 60.8976 50.1748 60.8976 54.6979C60.8976 59.221 64.5642 62.8876 69.0873 62.8876Z" fill="#D0FDFC"/>
<path d="M19.0715 220.83C27.4715 220.83 34.281 214.02 34.281 205.621C34.281 197.221 27.4715 190.411 19.0715 190.411C10.6716 190.411 3.86206 197.221 3.86206 205.621C3.86206 214.02 10.6716 220.83 19.0715 220.83Z" fill="#D0FDFC"/>
<g filter="url(#filter0_d_1966_48129)">
<path d="M252.479 81.607L297.23 242.477C298.692 248.034 295.475 253.591 289.917 255.054L132.265 296.88C126.708 298.342 121.151 295.125 119.688 289.567L64.7 81.8995C63.2376 76.3422 66.455 70.7849 72.0123 69.3224L186.083 39.1959L252.479 81.607Z" fill="url(#paint0_linear_1966_48129)"/>
</g>
<path d="M250.139 183.395L165.024 205.917L155.664 208.256L127.293 215.861C126.123 216.154 125.246 217.616 125.83 219.079C126.123 220.541 127.585 221.418 128.755 221.126L157.127 213.521L166.487 211.181L251.601 188.66C252.771 188.367 253.649 186.905 253.064 185.442C252.771 183.98 251.309 183.102 250.139 183.395Z" fill="#A6F9FB"/>
<path d="M244.581 163.504L212.992 171.694L202.17 174.619L122.32 195.97C121.15 196.263 120.273 197.725 120.858 199.188C121.15 200.65 122.613 201.528 123.783 201.235L203.925 179.884L214.747 176.959L246.336 168.769C247.506 168.476 248.384 167.014 247.799 165.551C247.214 164.382 245.751 163.212 244.581 163.504Z" fill="#A6F9FB"/>
<path d="M239.902 143.321L231.712 145.368L223.522 147.416L116.763 175.787C115.593 176.08 114.716 177.542 115.301 179.005C115.593 180.467 117.056 181.344 118.226 181.052L224.985 152.68L234.052 150.34L241.364 148.293C242.534 148.001 243.412 146.538 242.827 145.076C242.534 143.906 241.364 143.028 239.902 143.321Z" fill="#A6F9FB"/>
<path d="M190.471 246.866L184.621 248.329C183.451 248.621 181.989 247.744 181.696 246.281C181.404 244.819 181.989 243.356 183.159 243.064L189.008 241.601C190.178 241.309 191.641 242.186 191.933 243.649C192.226 245.404 191.641 246.574 190.471 246.866Z" fill="#CED7E2"/>
<path d="M172.629 251.545L138.993 260.32C137.823 260.612 136.36 259.735 136.068 258.272C135.775 256.81 136.36 255.347 137.53 255.055L171.167 246.28C172.336 245.988 173.799 246.865 174.091 248.327C174.676 249.79 174.091 251.252 172.629 251.545Z" fill="#A6F9FB"/>
<path d="M235.807 123.138L209.19 130.158L202.756 131.913L111.791 155.897C110.621 156.189 109.744 157.652 110.329 159.114C110.621 160.577 112.084 161.454 113.254 161.162L203.925 137.47L210.36 135.715L236.684 128.695C238.147 128.403 238.732 126.94 238.439 125.186C238.439 124.016 236.977 122.846 235.807 123.138Z" fill="#A6F9FB"/>
<path d="M172.921 78.9738L97.4589 98.8631C95.704 99.4481 93.9491 98.2781 93.3641 96.5232C92.7791 94.7683 93.9491 93.0133 95.704 92.4283L171.166 72.539C172.921 71.954 174.676 73.124 175.261 74.8789C175.846 76.6339 174.676 78.3888 172.921 78.9738Z" fill="#A6F9FB"/>
<path d="M131.388 109.394L102.431 116.998C100.677 117.583 98.9216 116.413 98.3366 114.659C97.7516 112.904 98.9216 111.149 100.677 110.564L129.341 102.959C131.096 102.374 132.85 103.544 133.435 105.299C134.02 107.054 132.85 108.809 131.388 109.394Z" fill="#A6F9FB"/>
<path d="M186.083 39.1959L197.783 83.6544C199.538 89.7967 206.265 93.5991 212.408 91.8441L252.479 81.607" fill="#A6F9FB"/>
<g filter="url(#filter1_d_1966_48129)">
<path d="M370.645 126.941L343.735 291.905C342.858 297.463 337.301 301.265 331.743 300.095L171.459 272.016C165.902 271.138 162.099 265.581 162.977 260.024L200.123 48.5535C201 42.9962 206.558 39.1938 212.115 40.3638L328.526 60.8381L370.645 126.941Z" fill="url(#paint1_linear_1966_48129)"/>
</g>
<path d="M325.894 218.489L239.317 203.28L229.957 201.525L201 196.552C199.83 196.26 198.368 197.43 198.368 198.892C198.075 200.355 198.953 201.817 200.123 202.11L229.079 207.082L238.439 208.837L325.016 224.046C326.186 224.339 327.648 223.169 327.648 221.706C327.941 220.244 327.356 218.782 325.894 218.489Z" fill="#CED7E2"/>
<path d="M329.403 198.306L297.229 192.749L286.407 190.701L204.802 176.369C203.632 176.077 202.17 177.247 202.17 178.709C201.878 180.172 202.755 181.634 203.925 181.927L285.53 196.259L296.352 198.306L328.526 203.864C329.696 204.156 331.158 202.986 331.158 201.524C331.451 200.061 330.573 198.599 329.403 198.306Z" fill="#CED7E2"/>
<path d="M333.498 177.832L325.016 176.369L316.534 174.907L207.727 155.895C206.557 155.603 205.095 156.773 205.095 158.235C204.802 159.697 205.68 161.16 206.85 161.452L315.656 180.464L325.016 182.219L332.328 183.389C333.498 183.682 334.961 182.512 334.961 181.049C335.546 179.587 334.961 178.124 333.498 177.832Z" fill="#D5DDEA"/>
<path d="M245.166 251.248L239.317 250.371C238.147 250.078 237.269 248.616 237.562 247.153C237.854 245.691 239.024 244.521 240.194 244.813L246.044 245.691C247.214 245.983 248.091 247.446 247.799 248.908C247.506 250.663 246.336 251.248 245.166 251.248Z" fill="#CED7E2"/>
<path d="M227.324 248.028L193.103 242.178C191.933 241.886 191.056 240.424 191.348 238.961C191.641 237.499 192.811 236.329 193.98 236.621L228.202 242.471C229.372 242.763 230.249 244.226 229.957 245.688C229.664 247.443 228.494 248.321 227.324 248.028Z" fill="#E3EAF2"/>
<path d="M338.178 157.941L310.976 153.262L304.249 152.092L211.53 135.712C210.36 135.42 208.897 136.59 208.897 138.052C208.605 139.515 209.482 140.977 210.652 141.27L303.372 157.649L310.099 158.819L337.008 163.499C338.471 163.791 339.641 162.621 339.933 161.159C340.225 159.696 339.348 158.234 338.178 157.941Z" fill="#A6F9FB"/>
<path d="M299.862 91.5504L222.937 78.0959C221.182 77.8034 220.012 76.0485 220.304 74.2935C220.597 72.5386 222.352 71.3686 224.107 71.6611L301.032 85.1157C302.787 85.4082 303.957 87.1631 303.664 88.918C303.372 90.3805 301.617 91.8429 299.862 91.5504Z" fill="#A6F9FB"/>
<path d="M249.261 101.493L219.72 96.228C217.965 95.9355 216.795 94.1806 217.087 92.4256C217.38 90.6707 219.135 89.5007 220.89 89.7932L250.139 95.058C251.894 95.3505 253.063 97.1055 252.771 98.8604C252.479 100.615 250.724 101.785 249.261 101.493Z" fill="#A6F9FB"/>
<path d="M328.233 60.8363L320.336 106.172C319.166 112.607 323.846 118.749 330.281 119.919L370.644 126.939" fill="#A6F9FB"/>
<path d="M260.376 276.405C296.399 276.405 325.601 247.203 325.601 211.18C325.601 175.157 296.399 145.955 260.376 145.955C224.353 145.955 195.151 175.157 195.151 211.18C195.151 247.203 224.353 276.405 260.376 276.405Z" fill="white"/>
<path d="M254.234 221.709C253.941 220.539 253.941 219.369 253.941 217.907C253.941 212.934 255.989 208.547 261.253 204.744L265.641 201.527C268.273 199.48 269.443 197.14 269.443 194.215C269.443 190.12 266.518 186.025 260.376 186.025C253.941 186.025 251.016 191.29 251.016 196.262C251.016 197.432 251.016 198.31 251.309 199.187L239.609 198.895C239.317 197.725 239.024 196.262 239.024 194.8C239.024 184.855 246.336 175.495 260.083 175.495C274.123 175.495 281.728 184.563 281.728 193.63C281.728 200.942 277.925 205.914 272.661 209.717L268.858 212.349C265.641 214.689 263.886 217.614 263.886 221.124V221.709H254.234ZM259.206 227.559C263.301 227.559 266.518 230.776 266.518 234.871C266.518 238.966 263.301 242.183 259.206 242.183C255.111 242.183 251.894 238.966 251.894 234.871C252.186 231.069 255.111 227.559 259.206 227.559Z" fill="#24E2EC"/>
<path d="M358.007 312.448C355.476 312.448 352.944 311.435 350.919 309.156L308.638 266.876L307.119 267.889C293.447 278.016 277.497 283.332 261.294 283.332C241.799 283.332 222.305 275.484 207.874 261.812C192.683 247.381 184.328 227.887 184.328 206.62C184.328 164.339 218.76 129.907 261.041 129.907C289.903 129.907 315.221 145.098 328.892 170.922C342.31 196.493 340.538 226.368 324.082 250.419L323.069 251.938L365.603 294.472C369.907 298.776 368.894 303.08 368.135 305.359C366.109 309.41 362.058 312.448 358.007 312.448ZM261.041 150.921C230.153 150.921 205.342 175.985 205.342 206.62C205.342 241.558 233.951 262.572 261.8 262.572C278.763 262.572 294.207 254.977 305.094 241.305C318.512 224.595 320.79 202.063 311.423 182.568C301.802 163.073 282.561 150.921 261.041 150.921Z" fill="url(#paint2_linear_1966_48129)"/>
<defs>
<filter id="filter0_d_1966_48129" x="-3.8147e-05" y="7.02201" width="361.93" height="386.732" filterUnits="userSpaceOnUse" color-interpolation-filters="sRGB">
<feFlood flood-opacity="0" result="BackgroundImageFix"/>
<feColorMatrix in="SourceAlpha" type="matrix" values="0 0 0 0 0 0 0 0 0 0 0 0 0 0 0 0 0 0 127 0" result="hardAlpha"/>
<feOffset dy="32.1739"/>
<feGaussianBlur stdDeviation="32.1739"/>
<feColorMatrix type="matrix" values="0 0 0 0 0.397708 0 0 0 0 0.47749 0 0 0 0 0.575 0 0 0 0.27 0"/>
<feBlend mode="normal" in2="BackgroundImageFix" result="effect1_dropShadow_1966_48129"/>
<feBlend mode="normal" in="SourceGraphic" in2="effect1_dropShadow_1966_48129" result="shape"/>
</filter>
<filter id="filter1_d_1966_48129" x="98.5029" y="7.97783" width="336.49" height="388.851" filterUnits="userSpaceOnUse" color-interpolation-filters="sRGB">
<feFlood flood-opacity="0" result="BackgroundImageFix"/>
<feColorMatrix in="SourceAlpha" type="matrix" values="0 0 0 0 0 0 0 0 0 0 0 0 0 0 0 0 0 0 127 0" result="hardAlpha"/>
<feOffset dy="32.1739"/>
<feGaussianBlur stdDeviation="32.1739"/>
<feColorMatrix type="matrix" values="0 0 0 0 0.397708 0 0 0 0 0.47749 0 0 0 0 0.575 0 0 0 0.27 0"/>
<feBlend mode="normal" in2="BackgroundImageFix" result="effect1_dropShadow_1966_48129"/>
<feBlend mode="normal" in="SourceGraphic" in2="effect1_dropShadow_1966_48129" result="shape"/>
</filter>
<linearGradient id="paint0_linear_1966_48129" x1="180.889" y1="33.2273" x2="180.889" y2="300.014" gradientUnits="userSpaceOnUse">
<stop stop-color="#FDFEFF"/>
<stop offset="0.9964" stop-color="#ECF0F5"/>
</linearGradient>
<linearGradient id="paint1_linear_1966_48129" x1="266.68" y1="34.1341" x2="266.68" y2="303.112" gradientUnits="userSpaceOnUse">
<stop stop-color="#FDFEFF"/>
<stop offset="0.9964" stop-color="#ECF0F5"/>
</linearGradient>
<linearGradient id="paint2_linear_1966_48129" x1="276.571" y1="129.907" x2="276.571" y2="312.448" gradientUnits="userSpaceOnUse">
<stop stop-color="#08C5D2"/>
<stop offset="1" stop-color="#69F3F7"/>
</linearGradient>
</defs>
</svg>
