<svg width="48" height="39" viewBox="0 0 48 39" fill="none" xmlns="http://www.w3.org/2000/svg">
<path fill-rule="evenodd" clip-rule="evenodd" d="M40.0938 0.106909C39.6942 0.246476 39.2577 0.652774 39.0694 1.06034C38.9884 1.23592 38.7938 1.79395 38.637 2.30056C37.8376 4.88408 36.4005 7.56822 35.0374 9.0236C34.7584 9.32169 34.1227 9.89765 33.6249 10.3036C32.3694 11.3275 32.038 11.7905 32.038 12.5211C32.038 13.0352 32.2438 13.3976 32.6703 13.6342C33.0738 13.8581 33.5989 13.8649 34.4937 13.6579C35.8586 13.342 37.055 13.2422 38.9953 13.2822C40.6425 13.3162 40.9689 13.3474 42.543 13.6211C44.707 13.9974 46.0776 14.0444 46.6185 13.7606C47.0215 13.5494 47.5917 12.9537 47.7638 12.5645C47.9547 12.1327 47.9364 11.256 47.727 10.8C47.5268 10.3641 47.0277 9.85349 46.5861 9.63281C45.6379 9.15898 43.8733 8.92455 42.3088 9.06451C41.133 9.16972 40.3236 9.34507 39.2051 9.73668L38.407 10.0161L39.1863 9.24894C40.8966 7.56554 41.8075 5.95614 42.2934 3.75933C42.4822 2.90535 42.514 1.84134 42.3676 1.2721C42.2376 0.766039 41.6711 0.211091 41.1545 0.0836878C40.6794 -0.0335258 40.4838 -0.0292606 40.0938 0.106909ZM19.8052 3.51045C18.465 3.79345 17.1308 4.82634 16.4442 6.11221C14.9285 8.95101 15.5862 12.6227 17.8791 14.1226C18.9255 14.807 20.3872 14.9896 21.5635 14.5826C24.2715 13.6459 26.1453 10.2941 25.5774 7.40267C25.2665 5.81997 24.4001 4.55258 23.1868 3.90561C22.2987 3.43218 20.9323 3.27247 19.8052 3.51045ZM43.7042 18.7846C42.1732 19.021 41.2267 19.7506 40.3257 21.3892C39.1573 23.5139 38.8662 24.0127 38.317 24.8316C35.5802 28.9126 31.9879 31.6131 28.1101 32.5045C25.2387 33.1646 21.6262 32.5284 18.5811 30.8264C16.6532 29.7487 15.4391 28.6326 14.7665 27.3197C14.3912 26.5869 13.8358 25.8335 13.3386 25.3826C12.5485 24.666 11.6737 24.5359 10.7198 24.9931C10.1065 25.2871 9.63488 25.7912 9.11199 26.7116C8.52476 27.7455 8.19773 28.1381 7.68282 28.4274C6.94263 28.8433 6.05771 28.6984 5.57844 28.0829C5.40105 27.855 5.04983 26.7906 5.04983 26.4807C5.04983 26.1763 4.68247 25.4715 4.3581 25.1538C3.16993 23.9899 1.14118 24.381 0.379306 25.921C-0.248322 27.1897 -0.0955192 28.7842 0.826248 30.5851C1.85872 32.6023 3.01245 33.626 4.34052 33.7034C5.29768 33.7592 5.88202 33.4468 7.46367 32.0339C8.44526 31.157 8.85067 30.932 9.52482 30.8899C10.4715 30.8307 11.4066 31.3839 12.3735 32.5753C13.9857 34.5614 15.1599 35.4711 17.6685 36.6772C22.4905 38.9955 26.2567 39.3428 31.3791 37.9413C33.3802 37.3939 35.1342 36.651 37.0928 35.5212C41.0525 33.2371 44.0387 30.5436 46.273 27.2407C47.71 25.1165 48.2142 23.4831 47.9191 21.9092C47.6934 20.7057 47.2539 19.9162 46.5136 19.3841C45.818 18.8843 44.6598 18.6372 43.7042 18.7846Z" fill="#0A9EB0"/>
</svg>
